# xmcd CD database file
#
# Track frame offsets:
#	150
#	15844
#	29323
#	41842
#	53360
#	66901
#	80263
#	90150
#	100536
#	112838
#	125957
#	137524
#	147647
#	159871
#	170338
#	180513
#	191889
#	202101
#	217735
#	228725
#	241573
#	252277
#	265067
#	274253
#	286873
#	298911
#	309664
#	322475
#
# Disc length: 4437 seconds
#
# Revision: 0
# Processed by: cddbd v1.5.2PL0 Copyright (c) Steve Scherf et al.
# Submitted via: CDex 1.51
#
DISCID=8d11531c
DTITLE=Various Artist - A ''Fine'' Hillbilly Song Country Music On The Fine Label
DYEAR=1900
DGENRE=Country
TTITLE0=Dan Seal - You Gotta Walk That Line
TTITLE1=Dan Seal - Don't Ever Break My Heart
TTITLE2=Ann Raye and Jim Owen - Our Wedding Band
TTITLE3=Ann Raye - Reckless
TTITLE4=Dan Seal - I Wake At Dawn (With You On My Mind)
TTITLE5=Dan Seal - Tear Drop Waltz
TTITLE6=Jim Owen - Sie Simon Shuffle
TTITLE7=Jim Owen - I'm Thinking Of You All The Time 
TTITLE8=J. W. Thompson and His Red River Trio - Your Heart Of Stone
TTITLE9=J. W. Thompson and His Red River Trio - Too Young To Know
TTITLE10=Pewee Maddux - New Red River Valley (instr.)
TTITLE11=Johnny Bozeman - She's My Bayou Babe
TTITLE12=Johnny Bozeman - Whatta Ya Gonna Be Doing
TTITLE13=Little Betty Ashley and J. W. Thompson - The Christmas Dolly
TTITLE14=J. W. Thompson and His Red River Trio - It's Your Turn 
TTITLE15=Hanna Faye - Easy To Remember (Hard To Forget)
TTITLE16=Hanna Faye - It Pays To Be True
TTITLE17=Pewee Maddux - New Maple On The Hill (instr.)
TTITLE18=Ann Raye - I Don't Want To Kissed (If I Can't Be Loved)
TTITLE19=Ann Raye - Stranger
TTITLE20=Ernie Chaffin - The Stop Look and Listen Song
TTITLE21=Ernie Chaffin - The Heart Of Me
TTITLE22=B. F. Johnson - I Wish I Could Believe You
TTITLE23=B. F. Johnson - Play Me A Blue Tune
TTITLE24=Hanna Faye - Searching For Someone Like You
TTITLE25=Hanna Faye - O' Why 
TTITLE26=Marie Barr - A Life Of Regret
TTITLE27=Marie Barr - Take My Heart
EXTD=
EXTT0=
EXTT1=
EXTT2=
EXTT3=
EXTT4=
EXTT5=
EXTT6=
EXTT7=
EXTT8=
EXTT9=
EXTT10=
EXTT11=
EXTT12=
EXTT13=
EXTT14=
EXTT15=
EXTT16=
EXTT17=
EXTT18=
EXTT19=
EXTT20=
EXTT21=
EXTT22=
EXTT23=
EXTT24=
EXTT25=
EXTT26=
EXTT27=
PLAYORDER=
